<svg width="24" height="24" viewBox="0 0 24 24" fill="none" xmlns="http://www.w3.org/2000/svg">
<path d="M3 20.79V5.50005C3 4.96961 3.21071 4.46091 3.58579 4.08583C3.96086 3.71076 4.46957 3.50005 5 3.50005H19C19.5304 3.50005 20.0391 3.71076 20.4142 4.08583C20.7893 4.46091 21 4.96961 21 5.50005V16.25C21 16.7805 20.7893 17.2892 20.4142 17.6643C20.0391 18.0393 19.5304 18.25 19 18.25H8.061C7.76123 18.2501 7.46531 18.3175 7.19511 18.4473C6.92491 18.5771 6.68735 18.766 6.5 19L4.069 21.164C3.99143 21.2613 3.88556 21.332 3.76604 21.3664C3.64652 21.4008 3.51926 21.3972 3.40186 21.3562C3.28446 21.3151 3.18273 21.2386 3.11073 21.1371C3.03874 21.0357 3.00005 20.9144 3 20.79Z" stroke="black" stroke-width="1.5"/>
</svg>
