<svg width="25" height="24" viewBox="0 0 25 24" fill="none" xmlns="http://www.w3.org/2000/svg">
<path fill-rule="evenodd" clip-rule="evenodd" d="M21.6667 3.426C21.6667 2.489 20.6617 1.863 19.8157 2.328C18.6787 2.952 15.3127 4.77 13.2977 5.571C10.9527 6.502 8.93366 6.852 6.61966 6.96C5.01666 7.034 3.66666 8.329 3.66666 10V14C3.66666 15.671 5.01666 16.966 6.61966 17.04C6.89299 17.0533 7.16299 17.0697 7.42966 17.089L6.68566 20.804C6.63367 21.0642 6.68718 21.3343 6.83439 21.5551C6.98161 21.7758 7.21048 21.929 7.47066 21.981C7.73083 22.033 8.00101 21.9795 8.22174 21.8323C8.44247 21.685 8.59567 21.4562 8.64766 21.196L9.42066 17.328C10.6837 17.543 11.9357 17.888 13.2977 18.429C15.3127 19.23 18.6777 21.049 19.8157 21.672C20.6617 22.137 21.6667 21.511 21.6667 20.574V3.426ZM9.66666 15.342C11.0847 15.577 12.4997 15.96 14.0367 16.571C15.6887 17.227 18.1227 18.49 19.6667 19.317V4.683C18.1227 5.51 15.6887 6.773 14.0367 7.429C12.4997 8.039 11.0847 8.423 9.66666 8.659V15.342ZM7.66666 8.899C7.35199 8.923 7.03399 8.94267 6.71266 8.958C6.10966 8.986 5.66666 9.462 5.66666 10V14C5.66666 14.538 6.10966 15.014 6.71266 15.042C7.03466 15.0567 7.35266 15.0767 7.66666 15.102V8.899Z" fill="black"/>
</svg>
