<svg width="24" height="24" viewBox="0 0 24 24" fill="none" xmlns="http://www.w3.org/2000/svg">
<rect width="24" height="24" rx="1" fill="white"/>
<path fill-rule="evenodd" clip-rule="evenodd" d="M9 20C9.44409 21.1542 10.6196 21.979 12 21.979C13.3804 21.979 14.5559 21.1542 15 20H13.8802C13.5077 20.5732 12.8276 20.979 12 20.979C11.1724 20.979 10.4923 20.5732 10.1198 20H9Z" fill="black"/>
<path fill-rule="evenodd" clip-rule="evenodd" d="M10.1207 4C10.4119 2.83483 11.1974 2.00005 12.1207 2.00005C13.0441 2.00005 13.8296 2.83483 14.1207 4H13.0781C13.0042 3.78939 12.9097 3.60592 12.8037 3.45596C12.5509 3.09841 12.2949 3.00005 12.1207 3.00005C11.9466 3.00005 11.6905 3.09841 11.4378 3.45596C11.3317 3.60592 11.2372 3.78939 11.1633 4H10.1207Z" fill="black"/>
<mask id="path-4-inside-1_4_1542" fill="white">
<path fill-rule="evenodd" clip-rule="evenodd" d="M11 3.60852C8.23853 3.60852 5.99995 5.8471 5.99995 8.60852V12.8599C5.99995 12.9529 5.987 13.0453 5.96148 13.1347L4.36416 18.7253C4.18164 19.3641 4.6613 20 5.32568 20H18.6742C19.3386 20 19.8183 19.3641 19.6357 18.7253L18.0384 13.1347C18.0129 13.0453 18 12.9529 18 12.8599V8.60852C18 5.8471 15.7614 3.60852 13 3.60852H11Z"/>
</mask>
<path d="M18.0384 13.1347L16.5961 13.5467L18.0384 13.1347ZM5.96148 13.1347L4.51919 12.7226L5.96148 13.1347ZM7.49995 8.60852C7.49995 6.67552 9.06696 5.10852 11 5.10852V2.10852C7.4101 2.10852 4.49995 5.01867 4.49995 8.60852H7.49995ZM7.49995 12.8599V8.60852H4.49995V12.8599H7.49995ZM5.80644 19.1374L7.40376 13.5467L4.51919 12.7226L2.92187 18.3132L5.80644 19.1374ZM18.6742 18.5H5.32568V21.5H18.6742V18.5ZM16.5961 13.5467L18.1935 19.1374L21.078 18.3132L19.4807 12.7226L16.5961 13.5467ZM16.5 8.60852V12.8599H19.5V8.60852H16.5ZM13 5.10852C14.9329 5.10852 16.5 6.67552 16.5 8.60852H19.5C19.5 5.01867 16.5898 2.10852 13 2.10852V5.10852ZM11 5.10852H13V2.10852H11V5.10852ZM19.4807 12.7226C19.4935 12.7673 19.5 12.8135 19.5 12.8599H16.5C16.5 13.0922 16.5323 13.3234 16.5961 13.5467L19.4807 12.7226ZM18.6742 21.5C20.3352 21.5 21.5343 19.9102 21.078 18.3132L18.1935 19.1374C18.1022 18.818 18.342 18.5 18.6742 18.5V21.5ZM2.92187 18.3132C2.46557 19.9102 3.66474 21.5 5.32568 21.5V18.5C5.65787 18.5 5.8977 18.818 5.80644 19.1374L2.92187 18.3132ZM4.49995 12.8599C4.49995 12.8135 4.50643 12.7673 4.51919 12.7226L7.40376 13.5467C7.46758 13.3234 7.49995 13.0922 7.49995 12.8599H4.49995Z" fill="black" mask="url(#path-4-inside-1_4_1542)"/>
</svg>
