<svg width="24" height="24" viewBox="0 0 24 24" fill="none" xmlns="http://www.w3.org/2000/svg">
<g clip-path="url(#clip0_4_1544)">
<rect width="24" height="24" rx="1" fill="white"/>
<path d="M10.1914 3.99023C11.0595 2.71471 12.9405 2.71471 13.8086 3.99023C14.551 5.0807 15.8193 5.69131 17.1348 5.5918C18.6733 5.47526 19.8456 6.94591 19.3896 8.41992C18.9999 9.68035 19.3138 11.0531 20.2119 12.0195C21.262 13.1496 20.8436 14.9822 19.4072 15.5449C18.1786 16.026 17.3001 17.1277 17.1045 18.4326C16.8756 19.9581 15.1821 20.7739 13.8467 20.002C12.7045 19.3413 11.2955 19.3413 10.1533 20.002C8.81791 20.7739 7.1244 19.9581 6.89551 18.4326C6.6999 17.1277 5.82145 16.026 4.59277 15.5449C3.15643 14.9822 2.73797 13.1496 3.78809 12.0195C4.68624 11.0531 5.00007 9.68035 4.61035 8.41992C4.15438 6.94591 5.32672 5.47526 6.86523 5.5918C8.18067 5.69131 9.44901 5.0807 10.1914 3.99023Z" stroke="black" stroke-width="1.5"/>
<circle cx="12" cy="12" r="2.25" stroke="black" stroke-width="1.5"/>
</g>
<defs>
<clipPath id="clip0_4_1544">
<rect width="24" height="24" rx="1" fill="white"/>
</clipPath>
</defs>
</svg>
